<?xml version="1.0" encoding="UTF-8" standalone="no"?>
<!DOCTYPE svg PUBLIC "-//W3C//DTD SVG 1.1//EN"
 "http://www.w3.org/Graphics/SVG/1.1/DTD/svg11.dtd">
<!-- Generated by graphviz version 2.40.1 (20161225.0304)
 -->
<!-- Title: %3 Pages: 1 -->
<svg width="182pt" height="120pt"
 viewBox="0.00 0.00 181.50 119.98" xmlns="http://www.w3.org/2000/svg" xmlns:xlink="http://www.w3.org/1999/xlink">
<g id="graph0" class="graph" transform="scale(1 1) rotate(0) translate(4 115.9828)">
<title>%3</title>
<polygon fill="#ffffff" stroke="transparent" points="-4,4 -4,-115.9828 177.5,-115.9828 177.5,4 -4,4"/>
<!-- x -->
<g id="node1" class="node">
<title>x</title>
<polygon fill="#d3d3d3" stroke="#000000" points="21,-111.9828 0,-111.9828 0,-93.9828 21,-93.9828 21,-111.9828"/>
<text text-anchor="middle" x="10.5" y="-100.7828" font-family="Times,serif" font-size="9.00" fill="#000000">x</text>
</g>
<!-- control -->
<g id="node5" class="node">
<title>control</title>
<ellipse fill="#add8e6" stroke="#000000" cx="76.5" cy="-28.9914" rx="28.9828" ry="28.9828"/>
<text text-anchor="middle" x="76.5" y="-26.7914" font-family="Times,serif" font-size="9.00" fill="#000000">control</text>
</g>
<!-- x&#45;&gt;control -->
<g id="edge3" class="edge">
<title>x&#45;&gt;control</title>
<path fill="none" stroke="#00ff00" stroke-width=".131" d="M18.5929,-93.91C26.4604,-85.0898 38.8435,-71.2074 50.1427,-58.54"/>
<polygon fill="#00ff00" stroke="#00ff00" stroke-width=".131" points="52.9433,-60.6583 56.988,-50.8659 47.7195,-55.9987 52.9433,-60.6583"/>
</g>
<!-- dx -->
<g id="node2" class="node">
<title>dx</title>
<polygon fill="#d3d3d3" stroke="#000000" points="65.5,-111.9828 39.5,-111.9828 39.5,-93.9828 65.5,-93.9828 65.5,-111.9828"/>
<text text-anchor="middle" x="52.5" y="-100.7828" font-family="Times,serif" font-size="9.00" fill="#000000">dx</text>
</g>
<!-- dx&#45;&gt;control -->
<g id="edge1" class="edge">
<title>dx&#45;&gt;control</title>
<path fill="none" stroke="#00ff00" stroke-width=".4288" d="M55.4429,-93.91C57.7194,-86.8915 61.0356,-76.6676 64.3657,-66.4011"/>
<polygon fill="#00ff00" stroke="#00ff00" stroke-width=".4288" points="67.773,-67.2403 67.5292,-56.6483 61.1145,-65.0805 67.773,-67.2403"/>
</g>
<!-- theta -->
<g id="node3" class="node">
<title>theta</title>
<polygon fill="#d3d3d3" stroke="#000000" points="117,-111.9828 84,-111.9828 84,-93.9828 117,-93.9828 117,-111.9828"/>
<text text-anchor="middle" x="100.5" y="-100.7828" font-family="Times,serif" font-size="9.00" fill="#000000">theta</text>
</g>
<!-- theta&#45;&gt;control -->
<g id="edge4" class="edge">
<title>theta&#45;&gt;control</title>
<path fill="none" stroke="#00ff00" stroke-width=".2731" d="M97.5571,-93.91C95.2806,-86.8915 91.9644,-76.6676 88.6343,-66.4011"/>
<polygon fill="#00ff00" stroke="#00ff00" stroke-width=".2731" points="91.8855,-65.0805 85.4708,-56.6483 85.227,-67.2403 91.8855,-65.0805"/>
</g>
<!-- dtheta -->
<g id="node4" class="node">
<title>dtheta</title>
<polygon fill="#d3d3d3" stroke="#000000" points="173.5,-111.9828 135.5,-111.9828 135.5,-93.9828 173.5,-93.9828 173.5,-111.9828"/>
<text text-anchor="middle" x="154.5" y="-100.7828" font-family="Times,serif" font-size="9.00" fill="#000000">dtheta</text>
</g>
<!-- dtheta&#45;&gt;control -->
<g id="edge2" class="edge">
<title>dtheta&#45;&gt;control</title>
<path fill="none" stroke="#00ff00" stroke-width="1.2986" d="M144.9357,-93.91C135.0504,-84.5327 119.133,-69.4333 105.136,-56.1557"/>
<polygon fill="#00ff00" stroke="#00ff00" stroke-width="1.2986" points="107.2718,-53.3575 97.6079,-49.0145 102.4542,-58.436 107.2718,-53.3575"/>
</g>
</g>
</svg>
