<?xml version="1.0" encoding="UTF-8" standalone="no"?>
<!DOCTYPE svg PUBLIC "-//W3C//DTD SVG 1.1//EN"
 "http://www.w3.org/Graphics/SVG/1.1/DTD/svg11.dtd">
<!-- Generated by graphviz version 2.40.1 (20161225.0304)
 -->
<!-- Title: %3 Pages: 1 -->
<svg width="83pt" height="215pt"
 viewBox="0.00 0.00 82.95 215.38" xmlns="http://www.w3.org/2000/svg" xmlns:xlink="http://www.w3.org/1999/xlink">
<g id="graph0" class="graph" transform="scale(1 1) rotate(0) translate(4 211.3797)">
<title>%3</title>
<polygon fill="#ffffff" stroke="transparent" points="-4,4 -4,-211.3797 78.9533,-211.3797 78.9533,4 -4,4"/>
<!-- A -->
<g id="node1" class="node">
<title>A</title>
<polygon fill="#d3d3d3" stroke="#000000" points="25.9767,-207.3797 2.9767,-207.3797 2.9767,-189.3797 25.9767,-189.3797 25.9767,-207.3797"/>
<text text-anchor="middle" x="14.4767" y="-196.1797" font-family="Times,serif" font-size="9.00" fill="#000000">A</text>
</g>
<!-- A XOR B -->
<g id="node3" class="node">
<title>A XOR B</title>
<ellipse fill="#add8e6" stroke="#000000" cx="37.4767" cy="-37.4767" rx="37.4533" ry="37.4533"/>
<text text-anchor="middle" x="37.4767" y="-35.2767" font-family="Times,serif" font-size="9.00" fill="#000000">A XOR B</text>
</g>
<!-- A&#45;&gt;A XOR B -->
<g id="edge5" class="edge">
<title>A&#45;&gt;A XOR B</title>
<path fill="none" stroke="#ff0000" stroke-width=".3238" d="M12.1502,-189.352C8.3907,-173.3876 1.9337,-139.1931 7.4767,-110.9533 9.4671,-100.8128 12.8661,-90.3075 16.6776,-80.5214"/>
<polygon fill="#ff0000" stroke="#ff0000" stroke-width=".3238" points="20.0206,-81.5948 20.5897,-71.0153 13.5474,-78.9308 20.0206,-81.5948"/>
</g>
<!-- 318 -->
<g id="node4" class="node">
<title>318</title>
<ellipse fill="#ffffff" stroke="#000000" cx="37.4767" cy="-132.1665" rx="21.4286" ry="21.4286"/>
<text text-anchor="middle" x="37.4767" y="-129.9665" font-family="Times,serif" font-size="9.00" fill="#000000">318</text>
</g>
<!-- A&#45;&gt;318 -->
<g id="edge2" class="edge">
<title>A&#45;&gt;318</title>
<path fill="none" stroke="#00ff00" stroke-width=".7761" d="M17.6747,-189.1731C20.1372,-182.084 23.6871,-171.8643 27.1032,-162.03"/>
<polygon fill="#00ff00" stroke="#00ff00" stroke-width=".7761" points="30.4542,-163.0493 30.4294,-152.4544 23.8418,-160.7523 30.4542,-163.0493"/>
</g>
<!-- B -->
<g id="node2" class="node">
<title>B</title>
<polygon fill="#d3d3d3" stroke="#000000" points="70.9767,-207.3797 47.9767,-207.3797 47.9767,-189.3797 70.9767,-189.3797 70.9767,-207.3797"/>
<text text-anchor="middle" x="59.4767" y="-196.1797" font-family="Times,serif" font-size="9.00" fill="#000000">B</text>
</g>
<!-- B&#45;&gt;A XOR B -->
<g id="edge1" class="edge">
<title>B&#45;&gt;A XOR B</title>
<path fill="none" stroke="#00ff00" stroke-width=".4053" d="M61.9739,-189.3577C66.0204,-173.402 73.025,-139.2206 67.4767,-110.9533 65.4863,-100.8128 62.0872,-90.3075 58.2757,-80.5214"/>
<polygon fill="#00ff00" stroke="#00ff00" stroke-width=".4053" points="61.406,-78.9308 54.3636,-71.0153 54.9327,-81.5948 61.406,-78.9308"/>
</g>
<!-- B&#45;&gt;318 -->
<g id="edge4" class="edge">
<title>B&#45;&gt;318</title>
<path fill="none" stroke="#ff0000" stroke-width=".6455" d="M56.4177,-189.1731C54.0622,-182.084 50.6666,-171.8643 47.3991,-162.03"/>
<polygon fill="#ff0000" stroke="#ff0000" stroke-width=".6455" points="50.6922,-160.8407 44.2175,-152.4544 44.0492,-163.0479 50.6922,-160.8407"/>
</g>
<!-- 318&#45;&gt;A XOR B -->
<g id="edge3" class="edge">
<title>318&#45;&gt;A XOR B</title>
<path fill="none" stroke="#00ff00" stroke-width=".8019" d="M37.4767,-110.6799C37.4767,-103.0681 37.4767,-94.1698 37.4767,-85.2512"/>
<polygon fill="#00ff00" stroke="#00ff00" stroke-width=".8019" points="40.9768,-85.2407 37.4767,-75.2407 33.9768,-85.2408 40.9768,-85.2407"/>
</g>
</g>
</svg>
